<svg xmlns="http://www.w3.org/2000/svg" xmlns:xlink="http://www.w3.org/1999/xlink" data-stacking-context="true" aria-owns="html1" width="1324" height="638" viewBox="1 1 1324 638">
    <!-- Generated by dom-to-svg from https://jemeni-tip-calculator.netlify.app/ -->
    <style/>
    <g data-stacking-layer="rootBackgroundAndBorders"/>
    <g data-stacking-layer="childStackingContextsWithNegativeStackLevels"/>
    <g data-stacking-layer="inFlowNonInlineNonPositionedDescendants"/>
    <g data-stacking-layer="nonPositionedFloats"/>
    <g data-stacking-layer="inFlowInlineLevelNonPositionedDescendants"/>
    <g data-stacking-layer="childStackingContextsWithStackLevelZeroAndPositionedDescendantsWithStackLevelZero"/>
    <g data-stacking-layer="childStackingContextsWithPositiveStackLevels"/>
    <g data-tag="html" id="html1" data-z-index="auto" data-stacking-context="true" aria-owns="head1 body1 grammarly-desktop-integration1">
        <g data-tag="head" id="head1" data-z-index="auto" data-stacking-context="true" aria-owns="meta1 meta2 link1 link2 link3 link4 link5 title1">
            <g data-tag="meta" id="meta1" data-z-index="auto" data-stacking-context="true"/>
            <g data-tag="meta" id="meta2" data-z-index="auto" data-stacking-context="true"/>
            <g data-tag="link" id="link1" data-z-index="auto" data-stacking-context="true" role="link"/>
            <g data-tag="link" id="link2" data-z-index="auto" data-stacking-context="true" role="link"/>
            <g data-tag="link" id="link3" data-z-index="auto" data-stacking-context="true" role="link"/>
            <g data-tag="link" id="link4" data-z-index="auto" data-stacking-context="true" role="link"/>
            <g data-tag="link" id="link5" data-z-index="auto" data-stacking-context="true" role="link"/>
            <g data-tag="title" id="title1" data-z-index="auto" data-stacking-context="true"/>
        </g>
        <g data-tag="body" id="body1" data-z-index="auto" data-stacking-context="true" role="document" aria-owns="main script1">
            <g data-stacking-layer="rootBackgroundAndBorders">
                <rect width="1326" height="480" x="0" y="0" fill="rgb(197, 228, 231)"/>
            </g>
            <g data-tag="div" id="main" data-z-index="auto" data-stacking-context="true" aria-owns="img1 tip-calculator">
                <g data-tag="img" id="img1" data-z-index="auto" data-stacking-context="true" role="img" aria-label="logo">
                    <g data-stacking-layer="rootBackgroundAndBorders"/>
                    <g data-stacking-layer="childStackingContextsWithNegativeStackLevels"/>
                    <g data-stacking-layer="inFlowNonInlineNonPositionedDescendants"/>
                    <g data-stacking-layer="nonPositionedFloats"/>
                    <g data-stacking-layer="inFlowInlineLevelNonPositionedDescendants"/>
                    <g data-stacking-layer="childStackingContextsWithStackLevelZeroAndPositionedDescendantsWithStackLevelZero"/>
                    <g data-stacking-layer="childStackingContextsWithPositiveStackLevels"/>
                    <g data-tag="img" role="img">
                        <g class="svg-content" data-view-box="" data-width="87" data-height="54" transform="matrix(1 0 0 1 619.5 24)">
                            <path fill="rgb(61, 102, 102)" d="M6.72 17.472c.944 0 1.792-.12 2.544-.36s1.392-.584 1.92-1.032a4.476 4.476 0 001.212-1.62c.28-.632.42-1.34.42-2.124v-.288c0-1.472-.464-2.584-1.392-3.336-.928-.752-2.272-1.288-4.032-1.608a14.615 14.615 0 01-1.74-.408c-.456-.144-.824-.308-1.104-.492-.28-.184-.476-.392-.588-.624a1.771 1.771 0 01-.168-.78c0-.56.232-1.004.696-1.332.464-.328 1.096-.492 1.896-.492.944 0 1.676.248 2.196.744.52.496.78 1.08.78 1.752v.576h3.168v-.864a5 5 0 00-.396-1.968 4.762 4.762 0 00-1.176-1.656C10.436 1.08 9.792.7 9.024.42 8.256.14 7.376 0 6.384 0c-.88 0-1.676.12-2.388.36s-1.32.576-1.824 1.008c-.504.432-.896.94-1.176 1.524-.28.584-.42 1.22-.42 1.908v.144c0 .832.144 1.536.432 2.112a3.978 3.978 0 001.212 1.44c.52.384 1.132.692 1.836.924.704.232 1.48.42 2.328.564.64.112 1.168.248 1.584.408.416.16.744.34.984.54s.408.424.504.672c.096.248.144.508.144.78 0 .576-.232 1.072-.696 1.488-.464.416-1.176.624-2.136.624-1.232 0-2.14-.3-2.724-.9-.584-.6-.876-1.404-.876-2.412v-.576H0v.72c0 .88.144 1.692.432 2.436a5.47 5.47 0 001.272 1.944c.56.552 1.26.984 2.1 1.296.84.312 1.812.468 2.916.468zm22-.336V10.8h3.408c.864 0 1.616-.144 2.256-.432a4.707 4.707 0 001.596-1.14 4.833 4.833 0 00.96-1.608c.216-.6.324-1.212.324-1.836v-.576c0-.608-.108-1.204-.324-1.788a4.625 4.625 0 00-.96-1.56A4.737 4.737 0 0034.384.756c-.64-.28-1.392-.42-2.256-.42h-6.576v16.8h3.168zm3.096-9.36H28.72V3.36h3.096c.704 0 1.26.192 1.668.576.408.384.612.88.612 1.488v.288c0 .608-.204 1.104-.612 1.488-.408.384-.964.576-1.668.576zm29.464 9.36v-3.024h-7.632V.336H50.48v16.8h10.8zm24.88 0v-3.024h-4.032V3.36h4.032V.336H74.928V3.36h4.032v10.752h-4.032v3.024H86.16zm-78.096 36V39.36h4.464v-3.024H.432v3.024h4.464v13.776h3.168zm24.688 0V39.36h4.464v-3.024H25.12v3.024h4.464v13.776h3.168zm28.624 0v-3.024h-7.728v-3.888H60.8V43.2h-7.152v-3.84h7.44v-3.024H50.48v16.8h10.896zm16.744 0V46.8h3.648c.464 0 .796.12.996.36.2.24.3.552.3.936v5.04h3.168v-5.808c0-.56-.164-1.024-.492-1.392-.328-.368-.772-.584-1.332-.648v-.432c.768-.32 1.336-.78 1.704-1.38a3.63 3.63 0 00.552-1.932v-.576c0-.64-.116-1.24-.348-1.8a4.332 4.332 0 00-1.008-1.476c-.44-.424-.988-.756-1.644-.996-.656-.24-1.416-.36-2.28-.36h-6.432v16.8h3.168zm3.024-9.36H78.12V39.36h3.024c.768 0 1.352.204 1.752.612.4.408.6.892.6 1.452v.288c0 .656-.2 1.164-.6 1.524-.4.36-.984.54-1.752.54z" color="rgb(0, 0, 0)" stroke="none"/>
                        </g>
                    </g>
                </g>
                <g data-tag="div" id="tip-calculator" data-z-index="auto" data-stacking-context="true" role="main" aria-owns="flex-item-1 flex-item-2">
                    <g data-stacking-layer="rootBackgroundAndBorders">
                        <rect width="880.1875" height="415.9375" x="222.90625" y="116" fill="rgb(255, 255, 255)" rx="16" ry="16"/>
                    </g>
                    <g data-tag="div" id="flex-item-1" data-z-index="auto" data-stacking-context="true" aria-owns="bill-container tip-selector people-container">
                        <g data-tag="div" id="bill-container" data-z-index="auto" data-stacking-context="true" aria-owns="p1 bill">
                            <g data-tag="p" id="p1" data-z-index="auto" data-stacking-context="true" aria-owns="span1">
                                <g data-tag="span" id="span1" data-z-index="auto" data-stacking-context="true">
                                    <text color="rgb(0, 0, 0)" dominant-baseline="text-after-edge" font-family="&quot;Space Mono&quot;, monospace" font-size="16px" font-stretch="100%" font-style="normal" font-variant="normal" font-weight="400" direction="ltr" letter-spacing="normal" text-decoration="none solid rgb(0, 0, 0)" text-anchor="start" text-rendering="auto" unicode-bidi="normal" word-spacing="0px" writing-mode="horizontal-tb" user-select="auto" fill="rgb(0, 0, 0)">
                                        <tspan xml:space="preserve" x="254.90625" y="172" textLength="39.171875" lengthAdjust="spacingAndGlyphs">Bill</tspan>
                                    </text>
                                </g>
                            </g>
                            <g data-tag="input" id="bill" data-z-index="auto" data-stacking-context="true" role="spinbutton" aria-placeholder="0" aria-labelledby="">
                                <g data-stacking-layer="rootBackgroundAndBorders">
                                    <rect width="376.09375" height="28" x="254.90625" y="177.59375" fill="rgb(244, 248, 251)" rx="6" ry="6"/>
                                    <g data-tag="img" role="img">
                                        <g class="svg-content" data-view-box="" data-width="376.09375" data-height="28" transform="matrix(1 0 0 1 254.906 177.594)">
                                            <path fill="rgb(158, 187, 189)" d="M6.016 16.328v-1.464c1.232-.08 2.22-.444 2.964-1.092.744-.648 1.116-1.508 1.116-2.58v-.144c0-.992-.348-1.772-1.044-2.34-.696-.568-1.708-.932-3.036-1.092V4.184c.56.144 1.012.4 1.356.768.344.368.516.816.516 1.344v.288h1.824v-.432c0-.448-.088-.876-.264-1.284a3.783 3.783 0 00-.744-1.116A4.251 4.251 0 007.54 2.9a5.324 5.324 0 00-1.524-.492V.872H4.288V2.36a5.532 5.532 0 00-1.416.324c-.448.168-.84.392-1.176.672-.336.28-.604.616-.804 1.008-.2.392-.3.844-.3 1.356v.144c0 .96.316 1.708.948 2.244.632.536 1.548.884 2.748 1.044v3.912c-.704-.16-1.248-.472-1.632-.936-.384-.464-.576-1.08-.576-1.848v-.288H.256v.576c0 .464.08.924.24 1.38.16.456.404.88.732 1.272.328.392.744.728 1.248 1.008s1.108.476 1.812.588v1.512h1.728zM4.288 7.424c-.688-.128-1.164-.332-1.428-.612-.264-.28-.396-.644-.396-1.092 0-.464.176-.832.528-1.104.352-.272.784-.448 1.296-.528v3.336zm1.728 5.712V9.344c.768.128 1.328.328 1.68.6.352.272.528.688.528 1.248 0 .544-.196.984-.588 1.32-.392.336-.932.544-1.62.624z" color="rgb(0, 0, 0)" stroke="none"/>
                                        </g>
                                    </g>
                                </g>
                                <g data-stacking-layer="childStackingContextsWithNegativeStackLevels"/>
                                <g data-stacking-layer="inFlowNonInlineNonPositionedDescendants"/>
                                <g data-stacking-layer="nonPositionedFloats"/>
                                <g data-stacking-layer="inFlowInlineLevelNonPositionedDescendants"/>
                                <g data-stacking-layer="childStackingContextsWithStackLevelZeroAndPositionedDescendantsWithStackLevelZero"/>
                                <g data-stacking-layer="childStackingContextsWithPositiveStackLevels"/>
                            </g>
                        </g>
                        <g data-tag="div" id="tip-selector" data-z-index="auto" data-stacking-context="true" aria-owns="p2 tip-container">
                            <g data-tag="p" id="p2" data-z-index="auto" data-stacking-context="true">
                                <text color="rgb(0, 0, 0)" dominant-baseline="text-after-edge" font-family="&quot;Space Mono&quot;, monospace" font-size="16px" font-stretch="100%" font-style="normal" font-variant="normal" font-weight="400" direction="ltr" letter-spacing="normal" text-decoration="none solid rgb(0, 0, 0)" text-anchor="start" text-rendering="auto" unicode-bidi="normal" word-spacing="0px" writing-mode="horizontal-tb" user-select="auto" fill="rgb(0, 0, 0)">
                                    <tspan xml:space="preserve" x="254.90625" y="269.59375" textLength="117.515625" lengthAdjust="spacingAndGlyphs">Select Tip %</tspan>
                                </text>
                            </g>
                            <g data-tag="div" id="tip-container" data-z-index="auto" data-stacking-context="true" aria-owns="tip1 tip2 tip3 tip4 tip5 custom-tip">
                                <g data-tag="span" id="tip1" class="tip" data-z-index="auto" data-stacking-context="true">
                                    <g data-stacking-layer="rootBackgroundAndBorders">
                                        <rect width="112.1875" height="50.375" x="254.90625" y="285.59375" fill="rgb(0, 73, 77)" rx="8" ry="8"/>
                                    </g>
                                    <text color="rgb(255, 255, 255)" dominant-baseline="text-after-edge" font-family="&quot;Space Mono&quot;, monospace" font-size="24px" font-stretch="100%" font-style="normal" font-variant="normal" font-weight="700" direction="ltr" letter-spacing="normal" text-decoration="none solid rgb(255, 255, 255)" text-anchor="start" text-rendering="auto" unicode-bidi="normal" word-spacing="0px" writing-mode="horizontal-tb" user-select="auto" fill="rgb(255, 255, 255)">
                                        <tspan xml:space="preserve" x="296.296875" y="328.78125" textLength="29.390625" lengthAdjust="spacingAndGlyphs">5%</tspan>
                                    </text>
                                </g>
                                <g data-tag="span" id="tip2" class="tip" data-z-index="auto" data-stacking-context="true">
                                    <g data-stacking-layer="rootBackgroundAndBorders">
                                        <rect width="112.1875" height="50.375" x="383.09375" y="285.59375" fill="rgb(0, 73, 77)" rx="8" ry="8"/>
                                    </g>
                                    <text color="rgb(255, 255, 255)" dominant-baseline="text-after-edge" font-family="&quot;Space Mono&quot;, monospace" font-size="24px" font-stretch="100%" font-style="normal" font-variant="normal" font-weight="700" direction="ltr" letter-spacing="normal" text-decoration="none solid rgb(255, 255, 255)" text-anchor="start" text-rendering="auto" unicode-bidi="normal" word-spacing="0px" writing-mode="horizontal-tb" user-select="auto" fill="rgb(255, 255, 255)">
                                        <tspan xml:space="preserve" x="417.140625" y="328.78125" textLength="44.078125" lengthAdjust="spacingAndGlyphs">10%</tspan>
                                    </text>
                                </g>
                                <g data-tag="span" id="tip3" class="tip" data-z-index="auto" data-stacking-context="true">
                                    <g data-stacking-layer="rootBackgroundAndBorders">
                                        <rect width="112.1875" height="50.375" x="511.28125" y="285.59375" fill="rgb(0, 73, 77)" rx="8" ry="8"/>
                                    </g>
                                    <text color="rgb(255, 255, 255)" dominant-baseline="text-after-edge" font-family="&quot;Space Mono&quot;, monospace" font-size="24px" font-stretch="100%" font-style="normal" font-variant="normal" font-weight="700" direction="ltr" letter-spacing="normal" text-decoration="none solid rgb(255, 255, 255)" text-anchor="start" text-rendering="auto" unicode-bidi="normal" word-spacing="0px" writing-mode="horizontal-tb" user-select="auto" fill="rgb(255, 255, 255)">
                                        <tspan xml:space="preserve" x="545.328125" y="328.78125" textLength="44.078125" lengthAdjust="spacingAndGlyphs">15%</tspan>
                                    </text>
                                </g>
                                <g data-tag="span" id="tip4" class="tip" data-z-index="auto" data-stacking-context="true">
                                    <g data-stacking-layer="rootBackgroundAndBorders">
                                        <rect width="112.1875" height="50.375" x="254.90625" y="351.96875" fill="rgb(0, 73, 77)" rx="8" ry="8"/>
                                    </g>
                                    <text color="rgb(255, 255, 255)" dominant-baseline="text-after-edge" font-family="&quot;Space Mono&quot;, monospace" font-size="24px" font-stretch="100%" font-style="normal" font-variant="normal" font-weight="700" direction="ltr" letter-spacing="normal" text-decoration="none solid rgb(255, 255, 255)" text-anchor="start" text-rendering="auto" unicode-bidi="normal" word-spacing="0px" writing-mode="horizontal-tb" user-select="auto" fill="rgb(255, 255, 255)">
                                        <tspan xml:space="preserve" x="288.953125" y="395.15625" textLength="44.078125" lengthAdjust="spacingAndGlyphs">25%</tspan>
                                    </text>
                                </g>
                                <g data-tag="span" id="tip5" class="tip" data-z-index="auto" data-stacking-context="true">
                                    <g data-stacking-layer="rootBackgroundAndBorders">
                                        <rect width="112.1875" height="50.375" x="383.09375" y="351.96875" fill="rgb(0, 73, 77)" rx="8" ry="8"/>
                                    </g>
                                    <text color="rgb(255, 255, 255)" dominant-baseline="text-after-edge" font-family="&quot;Space Mono&quot;, monospace" font-size="24px" font-stretch="100%" font-style="normal" font-variant="normal" font-weight="700" direction="ltr" letter-spacing="normal" text-decoration="none solid rgb(255, 255, 255)" text-anchor="start" text-rendering="auto" unicode-bidi="normal" word-spacing="0px" writing-mode="horizontal-tb" user-select="auto" fill="rgb(255, 255, 255)">
                                        <tspan xml:space="preserve" x="417.140625" y="395.15625" textLength="44.078125" lengthAdjust="spacingAndGlyphs">50%</tspan>
                                    </text>
                                </g>
                                <g data-tag="input" id="custom-tip" class="tip" data-z-index="auto" data-stacking-context="true" role="spinbutton" aria-placeholder="Custom" aria-labelledby="">
                                    <g data-stacking-layer="rootBackgroundAndBorders">
                                        <rect width="112.1875" height="50.375" x="511.28125" y="351.96875" fill="rgb(244, 248, 251)" rx="8" ry="8"/>
                                    </g>
                                    <g data-stacking-layer="childStackingContextsWithNegativeStackLevels"/>
                                    <g data-stacking-layer="inFlowNonInlineNonPositionedDescendants"/>
                                    <g data-stacking-layer="nonPositionedFloats"/>
                                    <g data-stacking-layer="inFlowInlineLevelNonPositionedDescendants"/>
                                    <g data-stacking-layer="childStackingContextsWithStackLevelZeroAndPositionedDescendantsWithStackLevelZero"/>
                                    <g data-stacking-layer="childStackingContextsWithPositiveStackLevels"/>
                                </g>
                            </g>
                        </g>
                        <g data-tag="div" id="people-container" data-z-index="auto" data-stacking-context="true" aria-owns="p3 no_of_people">
                            <g data-tag="p" id="p3" data-z-index="auto" data-stacking-context="true" aria-owns="span2">
                                <g data-tag="span" id="span2" data-z-index="auto" data-stacking-context="true">
                                    <text color="rgb(0, 0, 0)" dominant-baseline="text-after-edge" font-family="&quot;Space Mono&quot;, monospace" font-size="16px" font-stretch="100%" font-style="normal" font-variant="normal" font-weight="400" direction="ltr" letter-spacing="normal" text-decoration="none solid rgb(0, 0, 0)" text-anchor="start" text-rendering="auto" unicode-bidi="normal" word-spacing="0px" writing-mode="horizontal-tb" user-select="auto" fill="rgb(0, 0, 0)">
                                        <tspan xml:space="preserve" x="254.90625" y="466.34375" textLength="156.6875" lengthAdjust="spacingAndGlyphs">Number of People</tspan>
                                    </text>
                                </g>
                            </g>
                            <g data-tag="input" id="no_of_people" data-z-index="auto" data-stacking-context="true" role="spinbutton" aria-placeholder="0" aria-labelledby="">
                                <g data-stacking-layer="rootBackgroundAndBorders">
                                    <rect width="376.09375" height="28" x="254.90625" y="471.9375" fill="rgb(244, 248, 251)" rx="6" ry="6"/>
                                    <g data-tag="img" role="img">
                                        <g class="svg-content" data-view-box="" data-width="376.09375" data-height="28" transform="matrix(1 0 0 1 254.906 471.938)">
                                            <path fill="rgb(158, 187, 189)" d="M9.573 7.729c.406 0 .784.07 1.126.209.342.14.639.33.881.569.232.227.438.503.614.82a5.1 5.1 0 01.407.949c.097.312.178.654.242 1.016.062.359.105.699.126 1.011.02.307.031.624.031.945 0 .836-.259 1.512-.768 2.01-.504.492-1.17.742-1.98.742H2.748c-.81 0-1.477-.25-1.98-.742C.259 14.76 0 14.084 0 13.248c0-.322.01-.64.032-.945.02-.312.063-.652.126-1.01.063-.363.144-.705.242-1.017.1-.323.238-.643.407-.948.176-.318.382-.594.613-.821.243-.238.54-.43.882-.57.342-.138.72-.208 1.125-.208.16 0 .313.067.61.265.183.123.397.264.636.421.204.134.48.259.822.372.333.11.671.167 1.005.167a3.19 3.19 0 001.006-.167c.341-.113.618-.238.822-.372l.636-.42c.296-.2.45-.266.61-.266zM6.598 0C7.63 0 8.522.38 9.252 1.129s1.1 1.666 1.1 2.724c0 1.06-.37 1.976-1.1 2.725-.73.75-1.623 1.13-2.654 1.13-1.03 0-1.924-.38-2.653-1.13-.73-.749-1.1-1.666-1.1-2.725 0-1.058.37-1.975 1.1-2.724C4.675.379 5.567 0 6.598 0z" color="rgb(0, 0, 0)" stroke="none"/>
                                        </g>
                                    </g>
                                </g>
                                <g data-stacking-layer="childStackingContextsWithNegativeStackLevels"/>
                                <g data-stacking-layer="inFlowNonInlineNonPositionedDescendants"/>
                                <g data-stacking-layer="nonPositionedFloats"/>
                                <g data-stacking-layer="inFlowInlineLevelNonPositionedDescendants"/>
                                <g data-stacking-layer="childStackingContextsWithStackLevelZeroAndPositionedDescendantsWithStackLevelZero"/>
                                <g data-stacking-layer="childStackingContextsWithPositiveStackLevels"/>
                            </g>
                        </g>
                    </g>
                    <g data-tag="div" id="flex-item-2" data-z-index="auto" data-stacking-context="true" aria-owns="div1 div2">
                        <g data-stacking-layer="rootBackgroundAndBorders">
                            <rect width="352.0625" height="367.9375" x="707" y="140" fill="rgb(0, 73, 77)" rx="16" ry="16"/>
                        </g>
                        <g data-tag="div" id="div1" data-z-index="auto" data-stacking-context="true" aria-owns="tip-amount tip-total">
                            <g data-tag="div" id="tip-amount" class="tip-flex-item" data-z-index="auto" data-stacking-context="true" aria-owns="p4 tipAmountText">
                                <g data-tag="p" id="p4" data-z-index="auto" data-stacking-context="true" aria-owns="tip-title1 tip-subtitle1">
                                    <g data-tag="span" id="tip-title1" class="tip-title" data-z-index="auto" data-stacking-context="true">
                                        <text color="rgb(255, 255, 255)" dominant-baseline="text-after-edge" font-family="&quot;Space Mono&quot;, monospace" font-size="16px" font-stretch="100%" font-style="normal" font-variant="normal" font-weight="700" direction="ltr" letter-spacing="normal" text-decoration="none solid rgb(255, 255, 255)" text-anchor="start" text-rendering="auto" unicode-bidi="normal" word-spacing="0px" writing-mode="horizontal-tb" user-select="auto" fill="rgb(255, 255, 255)">
                                            <tspan xml:space="preserve" x="743" y="212" textLength="97.921875" lengthAdjust="spacingAndGlyphs">Tip Amount</tspan>
                                        </text>
                                    </g>
                                    <g data-tag="span" id="tip-subtitle1" class="tip-subtitle" data-z-index="auto" data-stacking-context="true">
                                        <text color="rgb(127, 156, 159)" dominant-baseline="text-after-edge" font-family="&quot;Space Mono&quot;, monospace" font-size="13px" font-stretch="100%" font-style="normal" font-variant="normal" font-weight="400" direction="ltr" letter-spacing="normal" text-decoration="none solid rgb(127, 156, 159)" text-anchor="start" text-rendering="auto" unicode-bidi="normal" word-spacing="0px" writing-mode="horizontal-tb" user-select="auto" fill="rgb(127, 156, 159)">
                                            <tspan xml:space="preserve" x="743" y="232" textLength="63.65625" lengthAdjust="spacingAndGlyphs">/ person</tspan>
                                        </text>
                                    </g>
                                </g>
                                <g data-tag="p" id="tipAmountText" class="tip-price" data-z-index="auto" data-stacking-context="true">
                                    <text color="rgb(38, 192, 171)" dominant-baseline="text-after-edge" font-family="&quot;Space Mono&quot;, monospace" font-size="36px" font-stretch="100%" font-style="normal" font-variant="normal" font-weight="700" direction="ltr" letter-spacing="normal" text-decoration="none solid rgb(38, 192, 171)" text-anchor="start" text-rendering="auto" unicode-bidi="normal" word-spacing="0px" writing-mode="horizontal-tb" user-select="auto" fill="rgb(38, 192, 171)">
                                        <tspan xml:space="preserve" x="912.890625" y="241" textLength="110.171875" lengthAdjust="spacingAndGlyphs">$0.00</tspan>
                                    </text>
                                </g>
                            </g>
                            <g data-tag="div" id="tip-total" class="tip-flex-item" data-z-index="auto" data-stacking-context="true" aria-owns="p5 tipTotalText">
                                <g data-tag="p" id="p5" data-z-index="auto" data-stacking-context="true" aria-owns="tip-title2 tip-subtitle2">
                                    <g data-tag="span" id="tip-title2" class="tip-title" data-z-index="auto" data-stacking-context="true">
                                        <text color="rgb(255, 255, 255)" dominant-baseline="text-after-edge" font-family="&quot;Space Mono&quot;, monospace" font-size="16px" font-stretch="100%" font-style="normal" font-variant="normal" font-weight="700" direction="ltr" letter-spacing="normal" text-decoration="none solid rgb(255, 255, 255)" text-anchor="start" text-rendering="auto" unicode-bidi="normal" word-spacing="0px" writing-mode="horizontal-tb" user-select="auto" fill="rgb(255, 255, 255)">
                                            <tspan xml:space="preserve" x="743" y="297" textLength="48.96875" lengthAdjust="spacingAndGlyphs">Total</tspan>
                                        </text>
                                    </g>
                                    <g data-tag="span" id="tip-subtitle2" class="tip-subtitle" data-z-index="auto" data-stacking-context="true">
                                        <text color="rgb(127, 156, 159)" dominant-baseline="text-after-edge" font-family="&quot;Space Mono&quot;, monospace" font-size="13px" font-stretch="100%" font-style="normal" font-variant="normal" font-weight="400" direction="ltr" letter-spacing="normal" text-decoration="none solid rgb(127, 156, 159)" text-anchor="start" text-rendering="auto" unicode-bidi="normal" word-spacing="0px" writing-mode="horizontal-tb" user-select="auto" fill="rgb(127, 156, 159)">
                                            <tspan xml:space="preserve" x="743" y="317" textLength="63.65625" lengthAdjust="spacingAndGlyphs">/ person</tspan>
                                        </text>
                                    </g>
                                </g>
                                <g data-tag="p" id="tipTotalText" class="tip-price" data-z-index="auto" data-stacking-context="true">
                                    <text color="rgb(38, 192, 171)" dominant-baseline="text-after-edge" font-family="&quot;Space Mono&quot;, monospace" font-size="36px" font-stretch="100%" font-style="normal" font-variant="normal" font-weight="700" direction="ltr" letter-spacing="normal" text-decoration="none solid rgb(38, 192, 171)" text-anchor="start" text-rendering="auto" unicode-bidi="normal" word-spacing="0px" writing-mode="horizontal-tb" user-select="auto" fill="rgb(38, 192, 171)">
                                        <tspan xml:space="preserve" x="912.890625" y="326" textLength="110.171875" lengthAdjust="spacingAndGlyphs">$0.00</tspan>
                                    </text>
                                </g>
                            </g>
                        </g>
                        <g data-tag="div" id="div2" data-z-index="auto" data-stacking-context="true" aria-owns="button1">
                            <g data-tag="button" id="button1" data-z-index="auto" data-stacking-context="true" role="button" aria-disabled="true" aria-labelledby="">
                                <g data-stacking-layer="rootBackgroundAndBorders">
                                    <rect width="304.0625" height="39" x="731" y="444.9375" fill="rgb(13, 105, 110)" rx="8" ry="8"/>
                                </g>
                                <text color="rgb(0, 73, 77)" dominant-baseline="text-after-edge" font-family="Arial" font-size="13.3333px" font-stretch="100%" font-style="normal" font-variant="normal" font-weight="700" direction="ltr" letter-spacing="normal" text-decoration="none solid rgb(0, 73, 77)" text-anchor="start" text-rendering="auto" unicode-bidi="normal" word-spacing="0px" writing-mode="horizontal-tb" user-select="auto" fill="rgb(0, 73, 77)">
                                    <tspan xml:space="preserve" x="860.8125" y="471.9375" textLength="44.4375" lengthAdjust="spacingAndGlyphs">RESET</tspan>
                                </text>
                            </g>
                        </g>
                    </g>
                </g>
            </g>
            <g data-tag="script" id="script1" data-z-index="auto" data-stacking-context="true"/>
        </g>
        <g data-tag="grammarly-desktop-integration" id="grammarly-desktop-integration1" data-z-index="auto" data-stacking-context="true"/>
    </g>
</svg>