<?xml version="1.0" standalone="no"?>
<!DOCTYPE svg PUBLIC "-//W3C//DTD SVG 20010904//EN"
 "http://www.w3.org/TR/2001/REC-SVG-20010904/DTD/svg10.dtd">
<svg version="1.0" xmlns="http://www.w3.org/2000/svg"
 width="1920.000000pt" height="1080.000000pt" viewBox="0 0 1920.000000 1080.000000"
 preserveAspectRatio="xMidYMid meet">

<g transform="translate(0.000000,1080.000000) scale(0.100000,-0.100000)"
fill="#000000" stroke="none">
<path d="M0 5400 l0 -5400 9600 0 9600 0 0 5400 0 5400 -9600 0 -9600 0 0
-5400z m9515 2915 c518 -55 923 -235 1239 -551 238 -238 426 -566 547 -954
100 -319 154 -672 168 -1098 23 -718 -58 -1299 -245 -1762 -207 -510 -513
-861 -932 -1069 -302 -151 -582 -217 -968 -228 -449 -13 -792 56 -1137 228
-419 209 -724 559 -931 1069 -149 369 -227 785 -245 1319 -34 1008 146 1767
546 2300 369 491 946 755 1663 760 85 0 218 -6 295 -14z m-4035 -1785 l0
-1720 425 0 425 0 0 -440 0 -440 -425 0 -425 0 -2 -602 -3 -603 -520 0 -520 0
-3 603 -2 602 -1260 0 -1260 0 0 435 0 435 1052 1673 c578 919 1067 1696 1085
1725 l34 52 699 0 700 0 0 -1720z m10210 0 l0 -1720 425 0 425 0 0 -440 0
-440 -425 0 -425 0 0 -605 0 -605 -522 2 -523 3 -3 603 -2 602 -1255 0 -1255
0 0 440 0 440 1082 1720 1081 1720 699 0 698 0 0 -1720z"/>
<path d="M8980 7379 c-517 -109 -789 -553 -860 -1408 -28 -338 -22 -796 15
-1118 52 -449 188 -808 383 -1011 187 -194 504 -294 832 -262 387 37 630 202
796 540 80 163 138 357 173 581 40 252 46 352 46 799 0 470 -9 591 -62 864
-61 321 -176 585 -327 753 -121 134 -299 228 -509 268 -117 22 -366 19 -487
-6z"/>
<path d="M3699 5938 c-355 -563 -650 -1029 -654 -1037 -4 -7 -2 -31 5 -52 l13
-39 684 0 683 0 0 1070 c0 901 -2 1070 -14 1070 -7 0 -26 3 -42 6 -29 6 -33 0
-675 -1018z"/>
<path d="M13902 5924 l-654 -1036 15 -36 15 -37 681 -3 681 -2 0 1069 0 1069
-31 6 c-17 3 -37 6 -43 6 -6 -1 -305 -467 -664 -1036z"/>
</g>
</svg>
